<svg width="47" height="47" viewBox="0 0 47 47" fill="none" xmlns="http://www.w3.org/2000/svg">
<path d="M22.0713 21.7844C22.0015 21.7845 21.9334 21.7633 21.8761 21.7235C21.8004 21.6716 21.7484 21.5917 21.7316 21.5015C21.7148 21.4113 21.7345 21.3181 21.7864 21.2424L29.8502 9.48547C29.8734 9.4509 29.903 9.42107 29.9374 9.39754L32.8451 7.36525L34.0539 3.5146L31.52 1.77619L28.3631 4.29137L27.5157 7.73633C27.5057 7.77673 27.4885 7.81497 27.4648 7.84918L19.4004 19.6061C19.3754 19.6453 19.3428 19.6791 19.3045 19.7055C19.2663 19.7318 19.2231 19.7502 19.1775 19.7595C19.132 19.7688 19.085 19.7688 19.0395 19.7596C18.9939 19.7504 18.9507 19.7321 18.9124 19.7058C18.874 19.6795 18.8414 19.6457 18.8164 19.6065C18.7914 19.5673 18.7746 19.5235 18.7669 19.4777C18.7592 19.4318 18.7608 19.3849 18.7716 19.3397C18.7824 19.2945 18.8023 19.2519 18.8299 19.2146L26.858 7.5096L27.7192 4.01029C27.7375 3.93605 27.7799 3.86996 27.8397 3.82233L31.2888 1.07522C31.3468 1.02912 31.418 1.00283 31.492 1.00022C31.566 0.997599 31.6389 1.01879 31.7 1.06069L34.6566 3.08848C34.7177 3.13037 34.7638 3.19078 34.788 3.26082C34.8123 3.33086 34.8134 3.40683 34.7912 3.47756L33.4696 7.6851C33.4466 7.75806 33.4001 7.82136 33.3374 7.8651L30.3853 9.92959L22.3579 21.6339C22.326 21.6804 22.2833 21.7185 22.2333 21.7447C22.1834 21.771 22.1277 21.7846 22.0713 21.7844Z" fill="#1B6EB8" stroke="#1B6EB8"/>
<path d="M8.1908 45.9992C7.57494 45.998 6.97389 45.8102 6.46693 45.4606L2.32239 42.6193C1.8606 42.3064 1.49477 41.8715 1.26569 41.3629C1.03662 40.8543 0.953284 40.2921 1.02499 39.7389C1.28876 37.7042 2.61004 34.5258 7.40675 30.9382C10.6236 28.5341 11.9269 26.2457 12.4541 24.7489C12.9618 23.3057 13.6568 21.9354 14.5213 20.6732C14.5731 20.5976 14.6528 20.5455 14.7429 20.5286C14.8332 20.5122 14.9263 20.532 15.0021 20.5836L22.458 25.6974C22.5336 25.7493 22.5855 25.8291 22.6023 25.9192C22.6191 26.0094 22.5995 26.1025 22.5477 26.1782C21.6815 27.4393 20.6534 28.5811 19.4897 29.5743C18.2837 30.6059 16.6166 32.6472 15.5345 36.5127C13.9159 42.2773 11.4274 44.655 9.62493 45.635C9.1848 45.8743 8.69175 45.9995 8.1908 45.9992ZM6.85844 44.8915C7.21201 45.1376 7.62702 45.2806 8.05716 45.3046C8.48729 45.3285 8.91563 45.2325 9.29435 45.0272C10.9798 44.1112 13.3146 41.8581 14.8675 36.3265C15.998 32.2934 17.7603 30.1427 19.0397 29.0489C20.0689 28.1704 20.9881 27.1709 21.7775 26.0719L14.899 21.3528C14.1578 22.4851 13.5562 23.7028 13.1073 24.9794C12.5479 26.5659 11.1771 28.9845 7.8211 31.4928C3.21721 34.9353 1.95823 37.9257 1.71142 39.8282C1.65675 40.255 1.72166 40.6886 1.8989 41.0807C2.07615 41.4727 2.35877 41.8079 2.71528 42.0488L6.85844 44.8915Z" fill="#1B6EB8" stroke="#1B6EB8"/>
<path d="M21.0121 25.4721C20.9421 25.4722 20.8738 25.4509 20.8162 25.4112L15.8616 22.0122C15.7859 21.9603 15.734 21.8805 15.7172 21.7902C15.7003 21.7 15.7201 21.6068 15.772 21.5311L17.1268 19.5559C17.3741 19.2072 17.7495 18.9706 18.1708 18.898C18.5921 18.8254 19.025 18.9227 19.3748 19.1686L22.2032 21.107C22.559 21.3444 22.8061 21.7132 22.8905 22.1325C22.9748 22.5518 22.8895 22.9874 22.6532 23.3439L21.2991 25.3191C21.2469 25.3947 21.1671 25.4467 21.0768 25.4638C21.0555 25.4683 21.0339 25.4711 21.0121 25.4721ZM16.5387 21.6374L20.9224 24.6437L22.081 22.9541C22.2139 22.7493 22.2602 22.5001 22.2098 22.2611C22.1594 22.0222 22.0164 21.813 21.8121 21.6792L18.9836 19.7408C18.7853 19.5986 18.5388 19.5407 18.298 19.5796C18.0571 19.6185 17.8414 19.7511 17.698 19.9485L16.5387 21.6374Z" fill="#1B6EB8" stroke="#1B6EB8"/>
<path d="M8.40787 42.6175H8.37637C7.50142 42.5861 6.65494 42.2985 5.94184 41.7906C4.2879 40.6555 3.61774 38.8548 4.41598 37.6907C4.63848 37.3928 4.93267 37.156 5.27122 37.0023C5.60976 36.8486 5.98167 36.7829 6.35238 36.8114C7.22814 36.8441 8.07507 37.133 8.7883 37.6422C9.51927 38.1242 10.0926 38.8103 10.437 39.6153C10.596 39.9512 10.668 40.3216 10.6465 40.6925C10.6249 41.0635 10.5105 41.4231 10.3138 41.7383C10.0939 42.0314 9.80459 42.2652 9.47189 42.4186C9.13919 42.5721 8.77355 42.6405 8.40787 42.6175ZM6.31708 37.5034C6.06475 37.4831 5.81131 37.5253 5.57917 37.6263C5.34703 37.7272 5.14334 37.8838 4.9861 38.0822C4.42602 38.8981 5.04322 40.335 6.33231 41.2194C6.93184 41.6499 7.64441 41.8953 8.38191 41.9252C8.63896 41.949 8.89788 41.9083 9.13527 41.8069C9.37267 41.7055 9.58105 41.5465 9.74161 41.3444C9.87182 41.1218 9.94462 40.8704 9.95345 40.6127C9.96227 40.3551 9.90684 40.0993 9.79215 39.8684C9.49842 39.1915 9.01284 38.6156 8.39541 38.2116C7.79525 37.7805 7.08205 37.5344 6.34373 37.5038L6.31708 37.5034Z" fill="#1B6EB8" stroke="#1B6EB8"/>
<path d="M35.2228 45.9993H33.0164C32.936 45.9993 32.858 45.9712 32.796 45.92C32.7339 45.8688 32.6917 45.7975 32.6765 45.7185L32.195 43.2096C31.0725 42.977 30.0045 42.5329 29.0481 41.9011L26.9323 43.3401C26.8657 43.3854 26.7852 43.406 26.705 43.3983C26.6247 43.3907 26.5497 43.3553 26.4927 43.2982L24.9333 41.7329C24.8765 41.6759 24.8413 41.6009 24.8338 41.5208C24.8263 41.4407 24.8469 41.3605 24.8921 41.2939L26.3255 39.1824C25.6945 38.2248 25.2518 37.1557 25.0212 36.0323L22.5143 35.5564C22.4352 35.5413 22.3638 35.4991 22.3124 35.4371C22.2611 35.375 22.2329 35.297 22.2329 35.2165V33.008C22.2329 32.9274 22.2609 32.8492 22.3123 32.7871C22.3637 32.725 22.4351 32.6828 22.5143 32.6677L25.0212 32.1921C25.2517 31.0687 25.6944 29.9996 26.3255 29.042L24.8921 26.9305C24.847 26.864 24.8264 26.7838 24.8339 26.7038C24.8414 26.6238 24.8766 26.5489 24.9333 26.4919L26.4927 24.9266C26.5495 24.8693 26.6245 24.8337 26.7048 24.8259C26.7851 24.818 26.8655 24.8385 26.9323 24.8836L29.0481 26.3223C30.0045 25.6904 31.0725 25.2464 32.195 25.0138L32.6765 22.5052C32.6916 22.4261 32.7338 22.3548 32.7959 22.3035C32.8579 22.2522 32.9359 22.2241 33.0164 22.2241H35.2228C35.3035 22.2241 35.3816 22.2522 35.4438 22.3037C35.5059 22.3551 35.5481 22.4266 35.5631 22.5059L36.0391 25.0128C37.1625 25.2433 38.2316 25.6861 39.1891 26.3174L41.3007 24.8836C41.3673 24.8384 41.4476 24.8179 41.5278 24.8255C41.608 24.8332 41.683 24.8685 41.7399 24.9255L43.2997 26.4909C43.3564 26.5478 43.3916 26.6227 43.3991 26.7028C43.4066 26.7828 43.386 26.8629 43.3409 26.9294L41.9078 29.041C42.5425 29.998 42.9872 31.0681 43.2177 32.1931L45.7187 32.6687C45.7979 32.6838 45.8693 32.726 45.9207 32.7882C45.9721 32.8503 46.0001 32.9284 46.0001 33.009V35.2158C46.0001 35.2963 45.9719 35.3743 45.9206 35.4364C45.8692 35.4984 45.7978 35.5406 45.7187 35.5557L43.2177 36.0317C42.9872 37.1566 42.5425 38.2268 41.9078 39.1838L43.3409 41.2953C43.3861 41.3619 43.4067 41.4421 43.3992 41.5222C43.3917 41.6023 43.3565 41.6773 43.2997 41.7343L41.7399 43.2996C41.683 43.3566 41.608 43.3919 41.5278 43.3996C41.4476 43.4072 41.3673 43.3867 41.3007 43.3415L39.1891 41.908C38.2315 42.5389 37.1624 42.9816 36.0391 43.2123L35.5631 45.7192C35.5477 45.7982 35.5054 45.8693 35.4433 45.9204C35.3812 45.9715 35.3032 45.9994 35.2228 45.9993ZM33.3023 45.3069H34.9362L35.4028 42.8492C35.4158 42.7802 35.4494 42.7168 35.4992 42.6673C35.549 42.6179 35.6127 42.5847 35.6818 42.5723C36.8721 42.3604 38.0022 41.8927 38.9942 41.2015C39.0517 41.1617 39.1198 41.1403 39.1897 41.14C39.2596 41.1397 39.3279 41.1605 39.3857 41.1998L41.453 42.6038L42.6084 41.4442L41.2037 39.3755C41.1643 39.3175 41.1434 39.2489 41.1438 39.1787C41.1442 39.1085 41.166 39.0402 41.2062 38.9826C41.9012 37.9931 42.3708 36.8631 42.5818 35.6723C42.5941 35.6032 42.6272 35.5394 42.6767 35.4895C42.7262 35.4396 42.7897 35.4059 42.8587 35.393L45.3085 34.9281V33.2953L42.858 32.829C42.789 32.8161 42.7256 32.7825 42.6761 32.7326C42.6266 32.6828 42.5935 32.6191 42.5811 32.55C42.3702 31.359 41.9006 30.2288 41.2055 29.239C41.1653 29.1815 41.1435 29.1131 41.1431 29.0429C41.1427 28.9728 41.1636 28.9041 41.203 28.8461L42.6084 26.7771L41.453 25.6175L39.3857 27.0215C39.3281 27.061 39.2598 27.0822 39.19 27.0822C39.1201 27.0822 39.0518 27.061 38.9942 27.0215C38.0026 26.33 36.8725 25.8624 35.6822 25.6511C35.613 25.6387 35.5492 25.6056 35.4993 25.5562C35.4494 25.5067 35.4158 25.4432 35.4028 25.3742L34.9362 22.9164H33.3023L32.8309 25.3742C32.8181 25.4429 32.7848 25.5061 32.7353 25.5555C32.6859 25.605 32.6227 25.6383 32.5539 25.6511C31.3653 25.8648 30.2371 26.3334 29.2468 27.0246C29.1892 27.0649 29.1208 27.0867 29.0505 27.0871C28.9803 27.0875 28.9116 27.0666 28.8535 27.0271L26.7804 25.6175L25.6253 26.7771L27.0313 28.8454C27.0709 28.9031 27.092 28.9713 27.092 29.0412C27.092 29.1111 27.0709 29.1793 27.0313 29.2369C26.3402 30.2287 25.8726 31.3588 25.6609 32.549C25.6486 32.6181 25.6154 32.6819 25.566 32.7318C25.5165 32.7817 25.453 32.8154 25.384 32.8283L22.9263 33.2946V34.9281L25.384 35.3944C25.4531 35.4074 25.5166 35.4411 25.5661 35.491C25.6155 35.541 25.6486 35.6048 25.6609 35.6741C25.8726 36.8641 26.3402 37.9939 27.0313 38.9854C27.0709 39.043 27.092 39.1113 27.092 39.1812C27.092 39.251 27.0709 39.3193 27.0313 39.3769L25.627 41.4456L26.7821 42.6052L28.8553 41.1953C28.9133 41.1558 28.9821 41.1349 29.0523 41.1354C29.1225 41.1359 29.191 41.1578 29.2485 41.1981C30.2384 41.8899 31.3664 42.3592 32.555 42.5737C32.6235 42.5864 32.6865 42.6194 32.7359 42.6685C32.7854 42.7176 32.8188 42.7805 32.8319 42.8489L33.3023 45.3069Z" fill="#1B6EB8" stroke="#1B6EB8"/>
<path d="M34.1131 39.6852C33.0108 39.6852 31.9333 39.3584 31.0168 38.746C30.1003 38.1336 29.386 37.2632 28.9641 36.2448C28.5423 35.2265 28.432 34.1059 28.647 33.0248C28.862 31.9437 29.3928 30.9507 30.1723 30.1713C30.9517 29.3919 31.9447 28.8611 33.0258 28.646C34.1069 28.431 35.2274 28.5414 36.2458 28.9632C37.2642 29.385 38.1346 30.0993 38.747 31.0158C39.3593 31.9323 39.6862 33.0098 39.6862 34.1121C39.6851 35.5898 39.0976 37.0067 38.0526 38.0517C37.0077 39.0966 35.5908 39.6841 34.1131 39.6852ZM34.1131 29.2313C33.1477 29.2313 32.2041 29.5175 31.4014 30.0538C30.5988 30.5901 29.9732 31.3524 29.6038 32.2443C29.2343 33.1361 29.1377 34.1175 29.326 35.0643C29.5143 36.0111 29.9792 36.8807 30.6618 37.5633C31.3444 38.2459 32.2141 38.7108 33.1609 38.8991C34.1076 39.0874 35.089 38.9908 35.9809 38.6214C36.8727 38.252 37.635 37.6264 38.1713 36.8237C38.7076 36.0211 38.9939 35.0774 38.9939 34.1121C38.9935 32.8176 38.4792 31.5761 37.564 30.6606C36.6488 29.7451 35.4076 29.2304 34.1131 29.2295V29.2313Z" fill="#1B6EB8" stroke="#1B6EB8"/>
<path d="M22.0713 21.7844C22.0015 21.7845 21.9334 21.7633 21.8761 21.7235C21.8004 21.6716 21.7484 21.5917 21.7316 21.5015C21.7148 21.4113 21.7345 21.3181 21.7864 21.2424L29.8502 9.48547C29.8734 9.4509 29.903 9.42107 29.9374 9.39754L32.8451 7.36525L34.0539 3.5146L31.52 1.77619L28.3631 4.29137L27.5157 7.73633C27.5057 7.77673 27.4885 7.81497 27.4648 7.84918L19.4004 19.6061C19.3754 19.6453 19.3428 19.6791 19.3045 19.7055C19.2663 19.7318 19.2231 19.7502 19.1775 19.7595C19.132 19.7688 19.085 19.7688 19.0395 19.7596C18.9939 19.7504 18.9507 19.7321 18.9124 19.7058C18.874 19.6795 18.8414 19.6457 18.8164 19.6065C18.7914 19.5673 18.7746 19.5235 18.7669 19.4777C18.7592 19.4318 18.7608 19.3849 18.7716 19.3397C18.7824 19.2945 18.8023 19.2519 18.8299 19.2146L26.858 7.5096L27.7192 4.01029C27.7375 3.93605 27.7799 3.86996 27.8397 3.82233L31.2888 1.07522C31.3468 1.02912 31.418 1.00283 31.492 1.00022C31.566 0.997599 31.6389 1.01879 31.7 1.06069L34.6566 3.08848C34.7177 3.13037 34.7638 3.19078 34.788 3.26082C34.8123 3.33086 34.8134 3.40683 34.7912 3.47756L33.4696 7.6851C33.4466 7.75806 33.4001 7.82136 33.3374 7.8651L30.3853 9.92959L22.3579 21.6339C22.326 21.6804 22.2833 21.7185 22.2333 21.7447C22.1834 21.771 22.1277 21.7846 22.0713 21.7844Z" fill="#1B6EB8" stroke="#1B6EB8"/>
<path d="M8.1908 45.9992C7.57494 45.998 6.97389 45.8102 6.46693 45.4606L2.32239 42.6193C1.8606 42.3064 1.49477 41.8715 1.26569 41.3629C1.03662 40.8543 0.953284 40.2921 1.02499 39.7389C1.28876 37.7042 2.61004 34.5258 7.40675 30.9382C10.6236 28.5341 11.9269 26.2457 12.4541 24.7489C12.9618 23.3057 13.6568 21.9354 14.5213 20.6732C14.5731 20.5976 14.6528 20.5455 14.7429 20.5286C14.8332 20.5122 14.9263 20.532 15.0021 20.5836L22.458 25.6974C22.5336 25.7493 22.5855 25.8291 22.6023 25.9192C22.6191 26.0094 22.5995 26.1025 22.5477 26.1782C21.6815 27.4393 20.6534 28.5811 19.4897 29.5743C18.2837 30.6059 16.6166 32.6472 15.5345 36.5127C13.9159 42.2773 11.4274 44.655 9.62493 45.635C9.1848 45.8743 8.69175 45.9995 8.1908 45.9992ZM6.85844 44.8915C7.21201 45.1376 7.62702 45.2806 8.05716 45.3046C8.48729 45.3285 8.91563 45.2325 9.29435 45.0272C10.9798 44.1112 13.3146 41.8581 14.8675 36.3265C15.998 32.2934 17.7603 30.1427 19.0397 29.0489C20.0689 28.1704 20.9881 27.1709 21.7775 26.0719L14.899 21.3528C14.1578 22.4851 13.5562 23.7028 13.1073 24.9794C12.5479 26.5659 11.1771 28.9845 7.8211 31.4928C3.21721 34.9353 1.95823 37.9257 1.71142 39.8282C1.65675 40.255 1.72166 40.6886 1.8989 41.0807C2.07615 41.4727 2.35877 41.8079 2.71528 42.0488L6.85844 44.8915Z" fill="#1B6EB8" stroke="#1B6EB8"/>
<path d="M21.0121 25.4721C20.9421 25.4722 20.8738 25.4509 20.8162 25.4112L15.8616 22.0122C15.7859 21.9603 15.734 21.8805 15.7172 21.7902C15.7003 21.7 15.7201 21.6068 15.772 21.5311L17.1268 19.5559C17.3741 19.2072 17.7495 18.9706 18.1708 18.898C18.5921 18.8254 19.025 18.9227 19.3748 19.1686L22.2032 21.107C22.559 21.3444 22.8061 21.7132 22.8905 22.1325C22.9748 22.5518 22.8895 22.9874 22.6532 23.3439L21.2991 25.3191C21.2469 25.3947 21.1671 25.4467 21.0768 25.4638C21.0555 25.4683 21.0339 25.4711 21.0121 25.4721ZM16.5387 21.6374L20.9224 24.6437L22.081 22.9541C22.2139 22.7493 22.2602 22.5001 22.2098 22.2611C22.1594 22.0222 22.0164 21.813 21.8121 21.6792L18.9836 19.7408C18.7853 19.5986 18.5388 19.5407 18.298 19.5796C18.0571 19.6185 17.8414 19.7511 17.698 19.9485L16.5387 21.6374Z" fill="#1B6EB8" stroke="#1B6EB8"/>
<path d="M8.40787 42.6175H8.37637C7.50142 42.5861 6.65494 42.2985 5.94184 41.7906C4.2879 40.6555 3.61774 38.8548 4.41598 37.6907C4.63848 37.3928 4.93267 37.156 5.27122 37.0023C5.60976 36.8486 5.98167 36.7829 6.35238 36.8114C7.22814 36.8441 8.07507 37.133 8.7883 37.6422C9.51927 38.1242 10.0926 38.8103 10.437 39.6153C10.596 39.9512 10.668 40.3216 10.6465 40.6925C10.6249 41.0635 10.5105 41.4231 10.3138 41.7383C10.0939 42.0314 9.80459 42.2652 9.47189 42.4186C9.13919 42.5721 8.77355 42.6405 8.40787 42.6175ZM6.31708 37.5034C6.06475 37.4831 5.81131 37.5253 5.57917 37.6263C5.34703 37.7272 5.14334 37.8838 4.9861 38.0822C4.42602 38.8981 5.04322 40.335 6.33231 41.2194C6.93184 41.6499 7.64441 41.8953 8.38191 41.9252C8.63896 41.949 8.89788 41.9083 9.13527 41.8069C9.37267 41.7055 9.58105 41.5465 9.74161 41.3444C9.87182 41.1218 9.94462 40.8704 9.95345 40.6127C9.96227 40.3551 9.90684 40.0993 9.79215 39.8684C9.49842 39.1915 9.01284 38.6156 8.39541 38.2116C7.79525 37.7805 7.08205 37.5344 6.34373 37.5038L6.31708 37.5034Z" fill="#1B6EB8" stroke="#1B6EB8"/>
<path d="M35.2228 45.9993H33.0164C32.936 45.9993 32.858 45.9712 32.796 45.92C32.7339 45.8688 32.6917 45.7975 32.6765 45.7185L32.195 43.2096C31.0725 42.977 30.0045 42.5329 29.0481 41.9011L26.9323 43.3401C26.8657 43.3854 26.7852 43.406 26.705 43.3983C26.6247 43.3907 26.5497 43.3553 26.4927 43.2982L24.9333 41.7329C24.8765 41.6759 24.8413 41.6009 24.8338 41.5208C24.8263 41.4407 24.8469 41.3605 24.8921 41.2939L26.3255 39.1824C25.6945 38.2248 25.2518 37.1557 25.0212 36.0323L22.5143 35.5564C22.4352 35.5413 22.3638 35.4991 22.3124 35.4371C22.2611 35.375 22.2329 35.297 22.2329 35.2165V33.008C22.2329 32.9274 22.2609 32.8492 22.3123 32.7871C22.3637 32.725 22.4351 32.6828 22.5143 32.6677L25.0212 32.1921C25.2517 31.0687 25.6944 29.9996 26.3255 29.042L24.8921 26.9305C24.847 26.864 24.8264 26.7838 24.8339 26.7038C24.8414 26.6238 24.8766 26.5489 24.9333 26.4919L26.4927 24.9266C26.5495 24.8693 26.6245 24.8337 26.7048 24.8259C26.7851 24.818 26.8655 24.8385 26.9323 24.8836L29.0481 26.3223C30.0045 25.6904 31.0725 25.2464 32.195 25.0138L32.6765 22.5052C32.6916 22.4261 32.7338 22.3548 32.7959 22.3035C32.8579 22.2522 32.9359 22.2241 33.0164 22.2241H35.2228C35.3035 22.2241 35.3816 22.2522 35.4438 22.3037C35.5059 22.3551 35.5481 22.4266 35.5631 22.5059L36.0391 25.0128C37.1625 25.2433 38.2316 25.6861 39.1891 26.3174L41.3007 24.8836C41.3673 24.8384 41.4476 24.8179 41.5278 24.8255C41.608 24.8332 41.683 24.8685 41.7399 24.9255L43.2997 26.4909C43.3564 26.5478 43.3916 26.6227 43.3991 26.7028C43.4066 26.7828 43.386 26.8629 43.3409 26.9294L41.9078 29.041C42.5425 29.998 42.9872 31.0681 43.2177 32.1931L45.7187 32.6687C45.7979 32.6838 45.8693 32.726 45.9207 32.7882C45.9721 32.8503 46.0001 32.9284 46.0001 33.009V35.2158C46.0001 35.2963 45.9719 35.3743 45.9206 35.4364C45.8692 35.4984 45.7978 35.5406 45.7187 35.5557L43.2177 36.0317C42.9872 37.1566 42.5425 38.2268 41.9078 39.1838L43.3409 41.2953C43.3861 41.3619 43.4067 41.4421 43.3992 41.5222C43.3917 41.6023 43.3565 41.6773 43.2997 41.7343L41.7399 43.2996C41.683 43.3566 41.608 43.3919 41.5278 43.3996C41.4476 43.4072 41.3673 43.3867 41.3007 43.3415L39.1891 41.908C38.2315 42.5389 37.1624 42.9816 36.0391 43.2123L35.5631 45.7192C35.5477 45.7982 35.5054 45.8693 35.4433 45.9204C35.3812 45.9715 35.3032 45.9994 35.2228 45.9993ZM33.3023 45.3069H34.9362L35.4028 42.8492C35.4158 42.7802 35.4494 42.7168 35.4992 42.6673C35.549 42.6179 35.6127 42.5847 35.6818 42.5723C36.8721 42.3604 38.0022 41.8927 38.9942 41.2015C39.0517 41.1617 39.1198 41.1403 39.1897 41.14C39.2596 41.1397 39.3279 41.1605 39.3857 41.1998L41.453 42.6038L42.6084 41.4442L41.2037 39.3755C41.1643 39.3175 41.1434 39.2489 41.1438 39.1787C41.1442 39.1085 41.166 39.0402 41.2062 38.9826C41.9012 37.9931 42.3708 36.8631 42.5818 35.6723C42.5941 35.6032 42.6272 35.5394 42.6767 35.4895C42.7262 35.4396 42.7897 35.4059 42.8587 35.393L45.3085 34.9281V33.2953L42.858 32.829C42.789 32.8161 42.7256 32.7825 42.6761 32.7326C42.6266 32.6828 42.5935 32.6191 42.5811 32.55C42.3702 31.359 41.9006 30.2288 41.2055 29.239C41.1653 29.1815 41.1435 29.1131 41.1431 29.0429C41.1427 28.9728 41.1636 28.9041 41.203 28.8461L42.6084 26.7771L41.453 25.6175L39.3857 27.0215C39.3281 27.061 39.2598 27.0822 39.19 27.0822C39.1201 27.0822 39.0518 27.061 38.9942 27.0215C38.0026 26.33 36.8725 25.8624 35.6822 25.6511C35.613 25.6387 35.5492 25.6056 35.4993 25.5562C35.4494 25.5067 35.4158 25.4432 35.4028 25.3742L34.9362 22.9164H33.3023L32.8309 25.3742C32.8181 25.4429 32.7848 25.5061 32.7353 25.5555C32.6859 25.605 32.6227 25.6383 32.5539 25.6511C31.3653 25.8648 30.2371 26.3334 29.2468 27.0246C29.1892 27.0649 29.1208 27.0867 29.0505 27.0871C28.9803 27.0875 28.9116 27.0666 28.8535 27.0271L26.7804 25.6175L25.6253 26.7771L27.0313 28.8454C27.0709 28.9031 27.092 28.9713 27.092 29.0412C27.092 29.1111 27.0709 29.1793 27.0313 29.2369C26.3402 30.2287 25.8726 31.3588 25.6609 32.549C25.6486 32.6181 25.6154 32.6819 25.566 32.7318C25.5165 32.7817 25.453 32.8154 25.384 32.8283L22.9263 33.2946V34.9281L25.384 35.3944C25.4531 35.4074 25.5166 35.4411 25.5661 35.491C25.6155 35.541 25.6486 35.6048 25.6609 35.6741C25.8726 36.8641 26.3402 37.9939 27.0313 38.9854C27.0709 39.043 27.092 39.1113 27.092 39.1812C27.092 39.251 27.0709 39.3193 27.0313 39.3769L25.627 41.4456L26.7821 42.6052L28.8553 41.1953C28.9133 41.1558 28.9821 41.1349 29.0523 41.1354C29.1225 41.1359 29.191 41.1578 29.2485 41.1981C30.2384 41.8899 31.3664 42.3592 32.555 42.5737C32.6235 42.5864 32.6865 42.6194 32.7359 42.6685C32.7854 42.7176 32.8188 42.7805 32.8319 42.8489L33.3023 45.3069Z" fill="#1B6EB8" stroke="#1B6EB8"/>
<path d="M34.1131 39.6852C33.0108 39.6852 31.9333 39.3584 31.0168 38.746C30.1003 38.1336 29.386 37.2632 28.9641 36.2448C28.5423 35.2265 28.432 34.1059 28.647 33.0248C28.862 31.9437 29.3928 30.9507 30.1723 30.1713C30.9517 29.3919 31.9447 28.8611 33.0258 28.646C34.1069 28.431 35.2274 28.5414 36.2458 28.9632C37.2642 29.385 38.1346 30.0993 38.747 31.0158C39.3593 31.9323 39.6862 33.0098 39.6862 34.1121C39.6851 35.5898 39.0976 37.0067 38.0526 38.0517C37.0077 39.0966 35.5908 39.6841 34.1131 39.6852ZM34.1131 29.2313C33.1477 29.2313 32.2041 29.5175 31.4014 30.0538C30.5988 30.5901 29.9732 31.3524 29.6038 32.2443C29.2343 33.1361 29.1377 34.1175 29.326 35.0643C29.5143 36.0111 29.9792 36.8807 30.6618 37.5633C31.3444 38.2459 32.2141 38.7108 33.1609 38.8991C34.1076 39.0874 35.089 38.9908 35.9809 38.6214C36.8727 38.252 37.635 37.6264 38.1713 36.8237C38.7076 36.0211 38.9939 35.0774 38.9939 34.1121C38.9935 32.8176 38.4792 31.5761 37.564 30.6606C36.6488 29.7451 35.4076 29.2304 34.1131 29.2295V29.2313Z" fill="#1B6EB8" stroke="#1B6EB8"/>
</svg>
