<svg width="41" height="42" viewBox="0 0 41 42" fill="none" xmlns="http://www.w3.org/2000/svg">
<path d="M36.4802 9.70048C35.9396 9.69956 35.4047 9.59016 34.9072 9.37874C32.9694 8.55976 32.0131 6.42827 32.7723 4.62745C33.0518 3.96814 33.5346 3.41539 34.1504 3.04985C34.1956 3.02266 34.2471 3.00755 34.2998 3.00597C34.3525 3.00438 34.4048 3.01638 34.4515 3.04079C34.4983 3.06521 34.538 3.10124 34.5669 3.14541C34.5957 3.18959 34.6127 3.24044 34.6162 3.29308L34.8213 6.33252L36.176 6.90549L37.5753 5.75862L37.2413 3.16992C37.2344 3.11623 37.2418 3.06168 37.2628 3.01177C37.2837 2.96185 37.3174 2.91834 37.3605 2.88562C37.4037 2.8529 37.4546 2.83213 37.5084 2.82539C37.5621 2.81866 37.6166 2.8262 37.6665 2.84726C39.6061 3.66623 40.5621 5.79741 39.801 7.59854C39.5162 8.23712 39.049 8.7773 38.4582 9.15126C37.8674 9.52523 37.1792 9.71629 36.4802 9.70048ZM33.3397 4.86668C32.7107 6.35438 33.5214 8.1238 35.1467 8.81069C36.7721 9.49758 38.6058 8.84517 39.2345 7.35716C39.7949 6.03141 39.212 4.48182 37.9279 3.67393L38.2086 5.84822C38.2152 5.89996 38.2086 5.95253 38.1893 6.001C38.17 6.04947 38.1388 6.09224 38.0984 6.12531L36.4232 7.49817C36.3798 7.53374 36.3276 7.55678 36.2721 7.56481C36.2166 7.57284 36.1599 7.56555 36.1082 7.54374L34.4069 6.82483C34.3544 6.80262 34.3091 6.76628 34.2761 6.71986C34.243 6.67344 34.2235 6.61875 34.2197 6.56189L34.0396 3.89068C33.7363 4.1596 33.4971 4.49298 33.3394 4.86637L33.3397 4.86668Z" fill="#1B6EB8" stroke="#1B6EB8"/>
<path d="M31.7233 24.7007C31.6536 24.7007 31.586 24.6772 31.5315 24.6338C31.477 24.5905 31.4388 24.5299 31.4231 24.4621L30.8046 21.7887L29.2036 21.0966L28.0952 22.1933L28.3926 24.3284C28.4007 24.3859 28.3924 24.4444 28.3687 24.4974C28.345 24.5503 28.3068 24.5955 28.2585 24.6276C28.2102 24.6598 28.1539 24.6777 28.0959 24.6792C28.0379 24.6808 27.9807 24.6659 27.9308 24.6363C26.2827 23.6591 25.5511 21.7114 26.2288 20.1104C26.4153 19.6739 26.6912 19.2813 27.0386 18.9579C27.3861 18.6344 27.7974 18.3873 28.246 18.2323C29.1847 17.9092 30.2097 17.9442 31.1241 18.3306C32.0385 18.7171 32.778 19.4276 33.2005 20.3259C33.4019 20.7558 33.5111 21.223 33.5211 21.6976C33.531 22.1722 33.4416 22.6436 33.2584 23.0815C32.9788 23.7407 32.496 24.2934 31.8803 24.6591C31.8326 24.6868 31.7784 24.7011 31.7233 24.7007ZM29.1355 20.4235C29.1779 20.4233 29.2198 20.4319 29.2587 20.4488L31.1928 21.285C31.237 21.3041 31.2761 21.3334 31.307 21.3704C31.3378 21.4074 31.3596 21.4511 31.3705 21.4981L31.921 23.8771C32.2581 23.5981 32.5231 23.2421 32.6938 22.8392C32.8434 22.4795 32.9161 22.0924 32.9072 21.7029C32.8984 21.3134 32.8081 20.93 32.6423 20.5775C32.2836 19.8202 31.6587 19.2214 30.8868 18.8952C30.1149 18.5691 29.25 18.5384 28.4569 18.809C28.0884 18.9356 27.7504 19.138 27.4648 19.4031C27.1792 19.6683 26.9523 19.9903 26.7987 20.3484C26.5807 20.9289 26.5488 21.5628 26.7074 22.1623C26.866 22.7617 27.2073 23.2969 27.6838 23.6936L27.4656 22.1252C27.459 22.0778 27.4635 22.0296 27.4789 21.9842C27.4942 21.9389 27.5199 21.8978 27.5539 21.8641L28.9188 20.5125C28.9766 20.4556 29.0544 20.4237 29.1355 20.4235Z" fill="#1B6EB8" stroke="#1B6EB8"/>
<path d="M29.3746 18.6262C29.3237 18.6262 29.2737 18.6136 29.2289 18.5896C29.1841 18.5655 29.146 18.5307 29.1179 18.4884C29.0898 18.446 29.0726 18.3973 29.068 18.3467C29.0633 18.296 29.0712 18.245 29.091 18.1982L33.395 8.01245C33.4268 7.93724 33.4872 7.87777 33.5629 7.84711C33.6386 7.81645 33.7234 7.81711 33.7986 7.84896C33.8738 7.88081 33.9333 7.94122 33.9639 8.01692C33.9946 8.09262 33.9939 8.17739 33.9621 8.2526L29.6585 18.4384C29.6349 18.4941 29.5953 18.5417 29.5448 18.5751C29.4944 18.6085 29.4351 18.6263 29.3746 18.6262Z" fill="#1B6EB8" stroke="#1B6EB8"/>
<path d="M32.1559 19.6745C32.1148 19.6746 32.0742 19.6663 32.0364 19.6502C31.9992 19.6345 31.9654 19.6116 31.937 19.5828C31.9086 19.5541 31.8861 19.52 31.8708 19.4825C31.8556 19.4451 31.8479 19.405 31.8482 19.3645C31.8484 19.3241 31.8566 19.2841 31.8723 19.2469L36.0876 9.27138C36.1034 9.23412 36.1263 9.20033 36.1551 9.17195C36.184 9.14356 36.2181 9.12113 36.2556 9.10593C36.2931 9.09073 36.3332 9.08307 36.3737 9.08338C36.4141 9.08369 36.4541 9.09197 36.4914 9.10774C36.5286 9.12351 36.5624 9.14646 36.5908 9.17528C36.6192 9.20411 36.6416 9.23825 36.6568 9.27574C36.672 9.31324 36.6797 9.35336 36.6794 9.39381C36.6791 9.43427 36.6708 9.47427 36.655 9.51153L32.4398 19.487C32.4161 19.5427 32.3766 19.5902 32.3261 19.6235C32.2756 19.6569 32.2164 19.6746 32.1559 19.6745Z" fill="#1B6EB8" stroke="#1B6EB8"/>
<path d="M26.3748 11.538H8.46816C8.38651 11.538 8.3082 11.5056 8.25046 11.4478C8.19272 11.3901 8.16028 11.3118 8.16028 11.2301C8.16028 11.1485 8.19272 11.0702 8.25046 11.0124C8.3082 10.9547 8.38651 10.9222 8.46816 10.9222H26.3748C26.4564 10.9222 26.5347 10.9547 26.5925 11.0124C26.6502 11.0702 26.6827 11.1485 26.6827 11.2301C26.6827 11.3118 26.6502 11.3901 26.5925 11.4478C26.5347 11.5056 26.4564 11.538 26.3748 11.538Z" fill="#1B6EB8" stroke="#1B6EB8"/>
<path d="M24.8541 11.538C24.8353 11.538 24.8165 11.5363 24.7981 11.5327C24.7179 11.5178 24.647 11.4716 24.6008 11.4045C24.5546 11.3373 24.537 11.2545 24.5517 11.1744C24.6199 10.7931 24.6531 10.4064 24.6509 10.0192C24.6509 6.12164 21.4079 2.95073 17.422 2.95073C13.4362 2.95073 10.1929 6.12195 10.1929 10.0192C10.1907 10.4065 10.224 10.7931 10.2923 11.1744C10.3002 11.2143 10.3 11.2555 10.2918 11.2954C10.2837 11.3353 10.2676 11.3732 10.2447 11.4069C10.2218 11.4406 10.1924 11.4694 10.1582 11.4916C10.1241 11.5138 10.0859 11.5291 10.0458 11.5364C10.0057 11.5438 9.96457 11.5431 9.92476 11.5344C9.88494 11.5258 9.84724 11.5093 9.81384 11.486C9.78044 11.4626 9.75201 11.4329 9.73019 11.3985C9.70837 11.3641 9.6936 11.3257 9.68673 11.2855C9.61156 10.8676 9.57487 10.4437 9.57712 10.0192C9.57712 5.78205 13.0966 2.33496 17.422 2.33496C21.7475 2.33496 25.2667 5.78328 25.2667 10.0192C25.2691 10.4437 25.2324 10.8676 25.157 11.2855C25.1441 11.3564 25.1067 11.4205 25.0513 11.4666C24.9959 11.5127 24.9262 11.538 24.8541 11.538Z" fill="#1B6EB8" stroke="#1B6EB8"/>
<path d="M17.4221 7.24422C17.3405 7.24422 17.2622 7.21179 17.2044 7.15405C17.1467 7.09631 17.1143 7.01799 17.1143 6.93634V1.30789C17.1143 1.22623 17.1467 1.14792 17.2044 1.09018C17.2622 1.03244 17.3405 1 17.4221 1C17.5038 1 17.5821 1.03244 17.6399 1.09018C17.6976 1.14792 17.73 1.22623 17.73 1.30789V6.93634C17.73 7.01799 17.6976 7.09631 17.6399 7.15405C17.5821 7.21179 17.5038 7.24422 17.4221 7.24422Z" fill="#1B6EB8" stroke="#1B6EB8"/>
<path d="M17.4219 22.6767C17.1282 22.6768 16.8358 22.6382 16.5521 22.5622C12.2251 21.403 11.746 18.0837 11.7026 17.0643C11.3344 17.006 10.992 16.839 10.7193 16.5848C10.4466 16.3306 10.2561 16.0008 10.1721 15.6375L9.84484 14.2425C9.80388 14.0678 9.80225 13.8862 9.84008 13.7109C9.8779 13.5355 9.95423 13.3707 10.0635 13.2284C10.1729 13.0862 10.3124 12.97 10.4722 12.8883C10.6319 12.8066 10.8078 12.7614 10.9871 12.756L10.706 11.2877C10.6984 11.248 10.6987 11.2072 10.7069 11.1676C10.7151 11.128 10.731 11.0904 10.7538 11.0569C10.7765 11.0235 10.8056 10.9948 10.8394 10.9726C10.8732 10.9504 10.911 10.9351 10.9508 10.9275C10.9905 10.9199 11.0313 10.9202 11.0709 10.9284C11.1105 10.9366 11.1481 10.9525 11.1816 10.9753C11.215 10.998 11.2437 11.0271 11.2659 11.0609C11.2881 11.0947 11.3034 11.1325 11.311 11.1723L11.6617 13.0054C11.6702 13.0499 11.6688 13.0958 11.6575 13.1397C11.6463 13.1836 11.6255 13.2245 11.5966 13.2595C11.5677 13.2944 11.5315 13.3225 11.4905 13.3418C11.4494 13.3612 11.4047 13.3712 11.3593 13.3712H11.0234C10.9338 13.3711 10.8452 13.3913 10.7645 13.4303C10.6837 13.4694 10.6128 13.5261 10.5571 13.5964C10.5014 13.6667 10.4623 13.7486 10.4428 13.8362C10.4233 13.9237 10.4238 14.0145 10.4443 14.1018L10.7716 15.4968C10.836 15.7749 10.9929 16.0228 11.2167 16.1999C11.4404 16.3771 11.7177 16.473 12.0031 16.4719C12.0888 16.4725 12.1707 16.507 12.231 16.568C12.2599 16.5984 12.2824 16.6343 12.2973 16.6736C12.3122 16.7129 12.3192 16.7547 12.3178 16.7967C12.3092 16.962 12.1598 20.7478 16.7122 21.9692C17.1776 22.0933 17.6674 22.0933 18.1328 21.9692C22.6849 20.7493 22.5356 16.9636 22.5273 16.8029C22.5251 16.7601 22.5318 16.7174 22.5467 16.6773C22.5616 16.6371 22.5845 16.6005 22.6141 16.5695C22.6439 16.5393 22.6793 16.5153 22.7184 16.4988C22.7575 16.4823 22.7995 16.4737 22.8419 16.4734C23.1273 16.4746 23.4047 16.3788 23.6285 16.2016C23.8522 16.0244 24.0092 15.7764 24.0735 15.4984L24.4007 14.1033C24.4213 14.0161 24.4218 13.9253 24.4023 13.8378C24.3827 13.7503 24.3437 13.6683 24.288 13.5981C24.2323 13.5278 24.1615 13.471 24.0808 13.432C24.0001 13.393 23.9116 13.3727 23.8219 13.3727H23.4848C23.4394 13.3728 23.3946 13.3628 23.3536 13.3435C23.3125 13.3242 23.2762 13.2961 23.2473 13.2611C23.2184 13.2262 23.1976 13.1853 23.1863 13.1413C23.175 13.0974 23.1736 13.0515 23.1821 13.0069L23.5331 11.1738C23.5399 11.1333 23.5547 11.0946 23.5766 11.06C23.5986 11.0253 23.6272 10.9954 23.6609 10.9719C23.6945 10.9485 23.7326 10.932 23.7727 10.9235C23.8128 10.915 23.8542 10.9145 23.8945 10.9222C23.9348 10.9299 23.9732 10.9456 24.0073 10.9683C24.0415 10.991 24.0707 11.0203 24.0934 11.0545C24.1161 11.0887 24.1317 11.1271 24.1393 11.1674C24.1469 11.2077 24.1464 11.2491 24.1378 11.2893L23.8567 12.756C24.0358 12.7617 24.2114 12.8072 24.3708 12.889C24.5302 12.9709 24.6694 13.0872 24.7784 13.2294C24.8874 13.3716 24.9635 13.5363 25.0011 13.7115C25.0387 13.8867 25.0369 14.0681 24.9959 14.2425L24.6686 15.6375C24.5846 16.0007 24.3941 16.3305 24.1215 16.5847C23.8489 16.8389 23.5066 17.0059 23.1384 17.0643C23.0959 18.0772 22.6202 21.4018 18.2892 22.5622C18.0063 22.638 17.7148 22.6765 17.4219 22.6767Z" fill="#1B6EB8" stroke="#1B6EB8"/>
<path d="M33.3871 40.9958H2.47508C2.08409 40.9951 1.70932 40.8395 1.43285 40.563C1.15638 40.2865 1.00073 39.9118 1 39.5208V32.4394C1.00106 31.5905 1.22662 30.7569 1.65378 30.0233C2.08094 29.2896 2.69452 28.682 3.43229 28.262C5.15645 27.2885 8.03734 25.9544 10.1408 24.9803C11.111 24.5311 11.9487 24.1431 12.4213 23.9067C12.5271 23.8536 12.6427 23.8231 12.7609 23.8173C12.8791 23.8115 12.9971 23.8304 13.1076 23.8728C13.2236 23.9183 13.329 23.9872 13.4172 24.0753C13.5054 24.1633 13.5745 24.2686 13.6202 24.3845C14.1301 25.6709 15.8028 27.0015 17.7194 27.0015C19.7142 27.0015 21.3287 25.6539 21.8352 24.3845C21.8798 24.2688 21.948 24.1635 22.0354 24.0756C22.1229 23.9877 22.2277 23.9189 22.3432 23.8737C22.4536 23.8305 22.5718 23.8111 22.6902 23.8168C22.8086 23.8224 22.9244 23.8531 23.0301 23.9067C23.1982 23.9904 23.8457 24.2823 24.7423 24.6862C26.5662 25.508 29.3227 26.7491 31.452 27.7719C32.4714 28.2655 33.3316 29.0356 33.9347 29.9942C34.5377 30.9529 34.8594 32.0617 34.8631 33.1943V39.5214C34.8622 39.9124 34.7063 40.2872 34.4297 40.5635C34.153 40.8399 33.7781 40.9954 33.3871 40.9958ZM12.8037 24.4301C12.7662 24.4304 12.7292 24.4394 12.6956 24.4562C12.2163 24.6961 11.3745 25.0859 10.3997 25.5372C8.30612 26.5071 5.43786 27.835 3.73618 28.7959C3.09322 29.1621 2.55855 29.6919 2.18638 30.3315C1.81421 30.971 1.61778 31.6976 1.617 32.4376V39.5189C1.61717 39.7468 1.70775 39.9652 1.86887 40.1264C2.02998 40.2875 2.24846 40.3781 2.47631 40.3782H33.388C33.6158 40.378 33.8343 40.2874 33.9954 40.1263C34.1565 39.9652 34.2471 39.7467 34.2473 39.5189V33.1919C34.2437 32.1754 33.9547 31.1804 33.4132 30.3202C32.8716 29.46 32.0994 28.7691 31.1845 28.3264C29.0619 27.3073 26.3094 26.0674 24.4883 25.2475C23.552 24.8257 22.9331 24.5471 22.754 24.4578C22.7249 24.4427 22.6929 24.4341 22.6602 24.4324C22.6275 24.4307 22.5948 24.436 22.5643 24.4479C22.5283 24.4625 22.4957 24.4845 22.4686 24.5124C22.4415 24.5402 22.4205 24.5734 22.407 24.6099C21.8244 26.0689 19.9839 27.6161 17.7182 27.6161C15.4577 27.6161 13.6233 26.0686 13.0466 24.612C13.0326 24.575 13.0111 24.5414 12.9834 24.5131C12.9558 24.4848 12.9226 24.4625 12.8859 24.4476C12.8598 24.437 12.8319 24.431 12.8037 24.4301Z" fill="#1B6EB8" stroke="#1B6EB8"/>
<path d="M22.1182 24.8048C22.0586 24.8048 22.0004 24.7874 21.9504 24.7549C21.6704 24.5731 21.4346 24.3309 21.2602 24.0462C21.0857 23.7615 20.9772 23.4414 20.9424 23.1093L20.7047 20.8756C20.6961 20.7943 20.7201 20.713 20.7715 20.6494C20.8228 20.5859 20.8973 20.5454 20.9786 20.5368C21.0598 20.5281 21.1412 20.5522 21.2047 20.6035C21.2683 20.6549 21.3088 20.7294 21.3174 20.8106L21.5551 23.0443C21.5803 23.2854 21.6591 23.5178 21.7857 23.7245C21.9124 23.9312 22.0836 24.107 22.2869 24.2389C22.3426 24.2752 22.3851 24.3284 22.408 24.3908C22.4309 24.4532 22.433 24.5212 22.414 24.5849C22.395 24.6486 22.356 24.7044 22.3026 24.744C22.2493 24.7836 22.1846 24.805 22.1182 24.8048Z" fill="#1B6EB8" stroke="#1B6EB8"/>
<path d="M13.5168 24.7462L13.3321 24.4971L13.1744 24.2327L13.1997 24.2176C13.398 24.0985 13.5688 23.9386 13.7006 23.7486C13.8325 23.5585 13.9224 23.3425 13.9645 23.115L14.2908 21.3499C14.2982 21.3102 14.3133 21.2722 14.3353 21.2383C14.3573 21.2044 14.3857 21.1751 14.419 21.1522C14.4523 21.1293 14.4898 21.1131 14.5294 21.1047C14.5689 21.0962 14.6098 21.0957 14.6495 21.103C14.6893 21.1104 14.7272 21.1255 14.7611 21.1474C14.7951 21.1694 14.8243 21.1979 14.8473 21.2312C14.8702 21.2645 14.8863 21.302 14.8948 21.3416C14.9032 21.3811 14.9038 21.4219 14.8964 21.4617L14.5701 23.2268C14.5123 23.5403 14.3885 23.8379 14.2069 24.0998C14.0253 24.3618 13.7901 24.5821 13.5168 24.7462Z" fill="#1B6EB8" stroke="#1B6EB8"/>
<path d="M19.415 41.0251H16.3386C16.257 41.0251 16.1787 40.9926 16.1209 40.9349C16.0632 40.8772 16.0308 40.7988 16.0308 40.7172V27.0951C16.0308 27.0134 16.0632 26.9351 16.1209 26.8774C16.1787 26.8197 16.257 26.7872 16.3386 26.7872C16.4203 26.7872 16.4986 26.8197 16.5564 26.8774C16.6141 26.9351 16.6465 27.0134 16.6465 27.0951V40.4093H19.1072V26.9855C19.1072 26.9038 19.1396 26.8255 19.1973 26.7678C19.2551 26.71 19.3334 26.6776 19.415 26.6776C19.4967 26.6776 19.575 26.71 19.6327 26.7678C19.6905 26.8255 19.7229 26.9038 19.7229 26.9855V40.6864C19.7244 40.7714 19.6933 40.8538 19.6361 40.9167C19.5789 40.9797 19.4998 41.0184 19.415 41.0251Z" fill="#1B6EB8" stroke="#1B6EB8"/>
<path d="M36.4802 9.70048C35.9396 9.69956 35.4047 9.59016 34.9072 9.37874C32.9694 8.55976 32.0131 6.42827 32.7723 4.62745C33.0518 3.96814 33.5346 3.41539 34.1504 3.04985C34.1956 3.02266 34.2471 3.00755 34.2998 3.00597C34.3525 3.00438 34.4048 3.01638 34.4515 3.04079C34.4983 3.06521 34.538 3.10124 34.5669 3.14541C34.5957 3.18959 34.6127 3.24044 34.6162 3.29308L34.8213 6.33252L36.176 6.90549L37.5753 5.75862L37.2413 3.16992C37.2344 3.11623 37.2418 3.06168 37.2628 3.01177C37.2837 2.96185 37.3174 2.91834 37.3605 2.88562C37.4037 2.8529 37.4546 2.83213 37.5084 2.82539C37.5621 2.81866 37.6166 2.8262 37.6665 2.84726C39.6061 3.66623 40.5621 5.79741 39.801 7.59854C39.5162 8.23712 39.049 8.7773 38.4582 9.15126C37.8674 9.52523 37.1792 9.71629 36.4802 9.70048ZM33.3397 4.86668C32.7107 6.35438 33.5214 8.1238 35.1467 8.81069C36.7721 9.49758 38.6058 8.84517 39.2345 7.35716C39.7949 6.03141 39.212 4.48182 37.9279 3.67393L38.2086 5.84822C38.2152 5.89996 38.2086 5.95253 38.1893 6.001C38.17 6.04947 38.1388 6.09224 38.0984 6.12531L36.4232 7.49817C36.3798 7.53374 36.3276 7.55678 36.2721 7.56481C36.2166 7.57284 36.1599 7.56555 36.1082 7.54374L34.4069 6.82483C34.3544 6.80262 34.3091 6.76628 34.2761 6.71986C34.243 6.67344 34.2235 6.61875 34.2197 6.56189L34.0396 3.89068C33.7363 4.1596 33.4971 4.49298 33.3394 4.86637L33.3397 4.86668Z" fill="#1B6EB8" stroke="#1B6EB8"/>
<path d="M31.7233 24.7007C31.6536 24.7007 31.586 24.6772 31.5315 24.6338C31.477 24.5905 31.4388 24.5299 31.4231 24.4621L30.8046 21.7887L29.2036 21.0966L28.0952 22.1933L28.3926 24.3284C28.4007 24.3859 28.3924 24.4444 28.3687 24.4974C28.345 24.5503 28.3068 24.5955 28.2585 24.6276C28.2102 24.6598 28.1539 24.6777 28.0959 24.6792C28.0379 24.6808 27.9807 24.6659 27.9308 24.6363C26.2827 23.6591 25.5511 21.7114 26.2288 20.1104C26.4153 19.6739 26.6912 19.2813 27.0386 18.9579C27.3861 18.6344 27.7974 18.3873 28.246 18.2323C29.1847 17.9092 30.2097 17.9442 31.1241 18.3306C32.0385 18.7171 32.778 19.4276 33.2005 20.3259C33.4019 20.7558 33.5111 21.223 33.5211 21.6976C33.531 22.1722 33.4416 22.6436 33.2584 23.0815C32.9788 23.7407 32.496 24.2934 31.8803 24.6591C31.8326 24.6868 31.7784 24.7011 31.7233 24.7007ZM29.1355 20.4235C29.1779 20.4233 29.2198 20.4319 29.2587 20.4488L31.1928 21.285C31.237 21.3041 31.2761 21.3334 31.307 21.3704C31.3378 21.4074 31.3596 21.4511 31.3705 21.4981L31.921 23.8771C32.2581 23.5981 32.5231 23.2421 32.6938 22.8392C32.8434 22.4795 32.9161 22.0924 32.9072 21.7029C32.8984 21.3134 32.8081 20.93 32.6423 20.5775C32.2836 19.8202 31.6587 19.2214 30.8868 18.8952C30.1149 18.5691 29.25 18.5384 28.4569 18.809C28.0884 18.9356 27.7504 19.138 27.4648 19.4031C27.1792 19.6683 26.9523 19.9903 26.7987 20.3484C26.5807 20.9289 26.5488 21.5628 26.7074 22.1623C26.866 22.7617 27.2073 23.2969 27.6838 23.6936L27.4656 22.1252C27.459 22.0778 27.4635 22.0296 27.4789 21.9842C27.4942 21.9389 27.5199 21.8978 27.5539 21.8641L28.9188 20.5125C28.9766 20.4556 29.0544 20.4237 29.1355 20.4235Z" fill="#1B6EB8" stroke="#1B6EB8"/>
<path d="M29.3746 18.6262C29.3237 18.6262 29.2737 18.6136 29.2289 18.5896C29.1841 18.5655 29.146 18.5307 29.1179 18.4884C29.0898 18.446 29.0726 18.3973 29.068 18.3467C29.0633 18.296 29.0712 18.245 29.091 18.1982L33.395 8.01245C33.4268 7.93724 33.4872 7.87777 33.5629 7.84711C33.6386 7.81645 33.7234 7.81711 33.7986 7.84896C33.8738 7.88081 33.9333 7.94122 33.9639 8.01692C33.9946 8.09262 33.9939 8.17739 33.9621 8.2526L29.6585 18.4384C29.6349 18.4941 29.5953 18.5417 29.5448 18.5751C29.4944 18.6085 29.4351 18.6263 29.3746 18.6262Z" fill="#1B6EB8" stroke="#1B6EB8"/>
<path d="M32.1559 19.6745C32.1148 19.6746 32.0742 19.6663 32.0364 19.6502C31.9992 19.6345 31.9654 19.6116 31.937 19.5828C31.9086 19.5541 31.8861 19.52 31.8708 19.4825C31.8556 19.4451 31.8479 19.405 31.8482 19.3645C31.8484 19.3241 31.8566 19.2841 31.8723 19.2469L36.0876 9.27138C36.1034 9.23412 36.1263 9.20033 36.1551 9.17195C36.184 9.14356 36.2181 9.12113 36.2556 9.10593C36.2931 9.09073 36.3332 9.08307 36.3737 9.08338C36.4141 9.08369 36.4541 9.09197 36.4914 9.10774C36.5286 9.12351 36.5624 9.14646 36.5908 9.17528C36.6192 9.20411 36.6416 9.23825 36.6568 9.27574C36.672 9.31324 36.6797 9.35336 36.6794 9.39381C36.6791 9.43427 36.6708 9.47427 36.655 9.51153L32.4398 19.487C32.4161 19.5427 32.3766 19.5902 32.3261 19.6235C32.2756 19.6569 32.2164 19.6746 32.1559 19.6745Z" fill="#1B6EB8" stroke="#1B6EB8"/>
<path d="M26.3748 11.538H8.46816C8.38651 11.538 8.3082 11.5056 8.25046 11.4478C8.19272 11.3901 8.16028 11.3118 8.16028 11.2301C8.16028 11.1485 8.19272 11.0702 8.25046 11.0124C8.3082 10.9547 8.38651 10.9222 8.46816 10.9222H26.3748C26.4564 10.9222 26.5347 10.9547 26.5925 11.0124C26.6502 11.0702 26.6827 11.1485 26.6827 11.2301C26.6827 11.3118 26.6502 11.3901 26.5925 11.4478C26.5347 11.5056 26.4564 11.538 26.3748 11.538Z" fill="#1B6EB8" stroke="#1B6EB8"/>
<path d="M24.8541 11.538C24.8353 11.538 24.8165 11.5363 24.7981 11.5327C24.7179 11.5178 24.647 11.4716 24.6008 11.4045C24.5546 11.3373 24.537 11.2545 24.5517 11.1744C24.6199 10.7931 24.6531 10.4064 24.6509 10.0192C24.6509 6.12164 21.4079 2.95073 17.422 2.95073C13.4362 2.95073 10.1929 6.12195 10.1929 10.0192C10.1907 10.4065 10.224 10.7931 10.2923 11.1744C10.3002 11.2143 10.3 11.2555 10.2918 11.2954C10.2837 11.3353 10.2676 11.3732 10.2447 11.4069C10.2218 11.4406 10.1924 11.4694 10.1582 11.4916C10.1241 11.5138 10.0859 11.5291 10.0458 11.5364C10.0057 11.5438 9.96457 11.5431 9.92476 11.5344C9.88494 11.5258 9.84724 11.5093 9.81384 11.486C9.78044 11.4626 9.75201 11.4329 9.73019 11.3985C9.70837 11.3641 9.6936 11.3257 9.68673 11.2855C9.61156 10.8676 9.57487 10.4437 9.57712 10.0192C9.57712 5.78205 13.0966 2.33496 17.422 2.33496C21.7475 2.33496 25.2667 5.78328 25.2667 10.0192C25.2691 10.4437 25.2324 10.8676 25.157 11.2855C25.1441 11.3564 25.1067 11.4205 25.0513 11.4666C24.9959 11.5127 24.9262 11.538 24.8541 11.538Z" fill="#1B6EB8" stroke="#1B6EB8"/>
<path d="M17.4221 7.24422C17.3405 7.24422 17.2622 7.21179 17.2044 7.15405C17.1467 7.09631 17.1143 7.01799 17.1143 6.93634V1.30789C17.1143 1.22623 17.1467 1.14792 17.2044 1.09018C17.2622 1.03244 17.3405 1 17.4221 1C17.5038 1 17.5821 1.03244 17.6399 1.09018C17.6976 1.14792 17.73 1.22623 17.73 1.30789V6.93634C17.73 7.01799 17.6976 7.09631 17.6399 7.15405C17.5821 7.21179 17.5038 7.24422 17.4221 7.24422Z" fill="#1B6EB8" stroke="#1B6EB8"/>
<path d="M17.4219 22.6767C17.1282 22.6768 16.8358 22.6382 16.5521 22.5622C12.2251 21.403 11.746 18.0837 11.7026 17.0643C11.3344 17.006 10.992 16.839 10.7193 16.5848C10.4466 16.3306 10.2561 16.0008 10.1721 15.6375L9.84484 14.2425C9.80388 14.0678 9.80225 13.8862 9.84008 13.7109C9.8779 13.5355 9.95423 13.3707 10.0635 13.2284C10.1729 13.0862 10.3124 12.97 10.4722 12.8883C10.6319 12.8066 10.8078 12.7614 10.9871 12.756L10.706 11.2877C10.6984 11.248 10.6987 11.2072 10.7069 11.1676C10.7151 11.128 10.731 11.0904 10.7538 11.0569C10.7765 11.0235 10.8056 10.9948 10.8394 10.9726C10.8732 10.9504 10.911 10.9351 10.9508 10.9275C10.9905 10.9199 11.0313 10.9202 11.0709 10.9284C11.1105 10.9366 11.1481 10.9525 11.1816 10.9753C11.215 10.998 11.2437 11.0271 11.2659 11.0609C11.2881 11.0947 11.3034 11.1325 11.311 11.1723L11.6617 13.0054C11.6702 13.0499 11.6688 13.0958 11.6575 13.1397C11.6463 13.1836 11.6255 13.2245 11.5966 13.2595C11.5677 13.2944 11.5315 13.3225 11.4905 13.3418C11.4494 13.3612 11.4047 13.3712 11.3593 13.3712H11.0234C10.9338 13.3711 10.8452 13.3913 10.7645 13.4303C10.6837 13.4694 10.6128 13.5261 10.5571 13.5964C10.5014 13.6667 10.4623 13.7486 10.4428 13.8362C10.4233 13.9237 10.4238 14.0145 10.4443 14.1018L10.7716 15.4968C10.836 15.7749 10.9929 16.0228 11.2167 16.1999C11.4404 16.3771 11.7177 16.473 12.0031 16.4719C12.0888 16.4725 12.1707 16.507 12.231 16.568C12.2599 16.5984 12.2824 16.6343 12.2973 16.6736C12.3122 16.7129 12.3192 16.7547 12.3178 16.7967C12.3092 16.962 12.1598 20.7478 16.7122 21.9692C17.1776 22.0933 17.6674 22.0933 18.1328 21.9692C22.6849 20.7493 22.5356 16.9636 22.5273 16.8029C22.5251 16.7601 22.5318 16.7174 22.5467 16.6773C22.5616 16.6371 22.5845 16.6005 22.6141 16.5695C22.6439 16.5393 22.6793 16.5153 22.7184 16.4988C22.7575 16.4823 22.7995 16.4737 22.8419 16.4734C23.1273 16.4746 23.4047 16.3788 23.6285 16.2016C23.8522 16.0244 24.0092 15.7764 24.0735 15.4984L24.4007 14.1033C24.4213 14.0161 24.4218 13.9253 24.4023 13.8378C24.3827 13.7503 24.3437 13.6683 24.288 13.5981C24.2323 13.5278 24.1615 13.471 24.0808 13.432C24.0001 13.393 23.9116 13.3727 23.8219 13.3727H23.4848C23.4394 13.3728 23.3946 13.3628 23.3536 13.3435C23.3125 13.3242 23.2762 13.2961 23.2473 13.2611C23.2184 13.2262 23.1976 13.1853 23.1863 13.1413C23.175 13.0974 23.1736 13.0515 23.1821 13.0069L23.5331 11.1738C23.5399 11.1333 23.5547 11.0946 23.5766 11.06C23.5986 11.0253 23.6272 10.9954 23.6609 10.9719C23.6945 10.9485 23.7326 10.932 23.7727 10.9235C23.8128 10.915 23.8542 10.9145 23.8945 10.9222C23.9348 10.9299 23.9732 10.9456 24.0073 10.9683C24.0415 10.991 24.0707 11.0203 24.0934 11.0545C24.1161 11.0887 24.1317 11.1271 24.1393 11.1674C24.1469 11.2077 24.1464 11.2491 24.1378 11.2893L23.8567 12.756C24.0358 12.7617 24.2114 12.8072 24.3708 12.889C24.5302 12.9709 24.6694 13.0872 24.7784 13.2294C24.8874 13.3716 24.9635 13.5363 25.0011 13.7115C25.0387 13.8867 25.0369 14.0681 24.9959 14.2425L24.6686 15.6375C24.5846 16.0007 24.3941 16.3305 24.1215 16.5847C23.8489 16.8389 23.5066 17.0059 23.1384 17.0643C23.0959 18.0772 22.6202 21.4018 18.2892 22.5622C18.0063 22.638 17.7148 22.6765 17.4219 22.6767Z" fill="#1B6EB8" stroke="#1B6EB8"/>
<path d="M33.3871 40.9958H2.47508C2.08409 40.9951 1.70932 40.8395 1.43285 40.563C1.15638 40.2865 1.00073 39.9118 1 39.5208V32.4394C1.00106 31.5905 1.22662 30.7569 1.65378 30.0233C2.08094 29.2896 2.69452 28.682 3.43229 28.262C5.15645 27.2885 8.03734 25.9544 10.1408 24.9803C11.111 24.5311 11.9487 24.1431 12.4213 23.9067C12.5271 23.8536 12.6427 23.8231 12.7609 23.8173C12.8791 23.8115 12.9971 23.8304 13.1076 23.8728C13.2236 23.9183 13.329 23.9872 13.4172 24.0753C13.5054 24.1633 13.5745 24.2686 13.6202 24.3845C14.1301 25.6709 15.8028 27.0015 17.7194 27.0015C19.7142 27.0015 21.3287 25.6539 21.8352 24.3845C21.8798 24.2688 21.948 24.1635 22.0354 24.0756C22.1229 23.9877 22.2277 23.9189 22.3432 23.8737C22.4536 23.8305 22.5718 23.8111 22.6902 23.8168C22.8086 23.8224 22.9244 23.8531 23.0301 23.9067C23.1982 23.9904 23.8457 24.2823 24.7423 24.6862C26.5662 25.508 29.3227 26.7491 31.452 27.7719C32.4714 28.2655 33.3316 29.0356 33.9347 29.9942C34.5377 30.9529 34.8594 32.0617 34.8631 33.1943V39.5214C34.8622 39.9124 34.7063 40.2872 34.4297 40.5635C34.153 40.8399 33.7781 40.9954 33.3871 40.9958ZM12.8037 24.4301C12.7662 24.4304 12.7292 24.4394 12.6956 24.4562C12.2163 24.6961 11.3745 25.0859 10.3997 25.5372C8.30612 26.5071 5.43786 27.835 3.73618 28.7959C3.09322 29.1621 2.55855 29.6919 2.18638 30.3315C1.81421 30.971 1.61778 31.6976 1.617 32.4376V39.5189C1.61717 39.7468 1.70775 39.9652 1.86887 40.1264C2.02998 40.2875 2.24846 40.3781 2.47631 40.3782H33.388C33.6158 40.378 33.8343 40.2874 33.9954 40.1263C34.1565 39.9652 34.2471 39.7467 34.2473 39.5189V33.1919C34.2437 32.1754 33.9547 31.1804 33.4132 30.3202C32.8716 29.46 32.0994 28.7691 31.1845 28.3264C29.0619 27.3073 26.3094 26.0674 24.4883 25.2475C23.552 24.8257 22.9331 24.5471 22.754 24.4578C22.7249 24.4427 22.6929 24.4341 22.6602 24.4324C22.6275 24.4307 22.5948 24.436 22.5643 24.4479C22.5283 24.4625 22.4957 24.4845 22.4686 24.5124C22.4415 24.5402 22.4205 24.5734 22.407 24.6099C21.8244 26.0689 19.9839 27.6161 17.7182 27.6161C15.4577 27.6161 13.6233 26.0686 13.0466 24.612C13.0326 24.575 13.0111 24.5414 12.9834 24.5131C12.9558 24.4848 12.9226 24.4625 12.8859 24.4476C12.8598 24.437 12.8319 24.431 12.8037 24.4301Z" fill="#1B6EB8" stroke="#1B6EB8"/>
<path d="M22.1182 24.8048C22.0586 24.8048 22.0004 24.7874 21.9504 24.7549C21.6704 24.5731 21.4346 24.3309 21.2602 24.0462C21.0857 23.7615 20.9772 23.4414 20.9424 23.1093L20.7047 20.8756C20.6961 20.7943 20.7201 20.713 20.7715 20.6494C20.8228 20.5859 20.8973 20.5454 20.9786 20.5368C21.0598 20.5281 21.1412 20.5522 21.2047 20.6035C21.2683 20.6549 21.3088 20.7294 21.3174 20.8106L21.5551 23.0443C21.5803 23.2854 21.6591 23.5178 21.7857 23.7245C21.9124 23.9312 22.0836 24.107 22.2869 24.2389C22.3426 24.2752 22.3851 24.3284 22.408 24.3908C22.4309 24.4532 22.433 24.5212 22.414 24.5849C22.395 24.6486 22.356 24.7044 22.3026 24.744C22.2493 24.7836 22.1846 24.805 22.1182 24.8048Z" fill="#1B6EB8" stroke="#1B6EB8"/>
<path d="M13.5168 24.7462L13.3321 24.4971L13.1744 24.2327L13.1997 24.2176C13.398 24.0985 13.5688 23.9386 13.7006 23.7486C13.8325 23.5585 13.9224 23.3425 13.9645 23.115L14.2908 21.3499C14.2982 21.3102 14.3133 21.2722 14.3353 21.2383C14.3573 21.2044 14.3857 21.1751 14.419 21.1522C14.4523 21.1293 14.4898 21.1131 14.5294 21.1047C14.5689 21.0962 14.6098 21.0957 14.6495 21.103C14.6893 21.1104 14.7272 21.1255 14.7611 21.1474C14.7951 21.1694 14.8243 21.1979 14.8473 21.2312C14.8702 21.2645 14.8863 21.302 14.8948 21.3416C14.9032 21.3811 14.9038 21.4219 14.8964 21.4617L14.5701 23.2268C14.5123 23.5403 14.3885 23.8379 14.2069 24.0998C14.0253 24.3618 13.7901 24.5821 13.5168 24.7462Z" fill="#1B6EB8" stroke="#1B6EB8"/>
<path d="M19.415 41.0251H16.3386C16.257 41.0251 16.1787 40.9926 16.1209 40.9349C16.0632 40.8772 16.0308 40.7988 16.0308 40.7172V27.0951C16.0308 27.0134 16.0632 26.9351 16.1209 26.8774C16.1787 26.8197 16.257 26.7872 16.3386 26.7872C16.4203 26.7872 16.4986 26.8197 16.5564 26.8774C16.6141 26.9351 16.6465 27.0134 16.6465 27.0951V40.4093H19.1072V26.9855C19.1072 26.9038 19.1396 26.8255 19.1973 26.7678C19.2551 26.71 19.3334 26.6776 19.415 26.6776C19.4967 26.6776 19.575 26.71 19.6327 26.7678C19.6905 26.8255 19.7229 26.9038 19.7229 26.9855V40.6864C19.7244 40.7714 19.6933 40.8538 19.6361 40.9167C19.5789 40.9797 19.4998 41.0184 19.415 41.0251Z" fill="#1B6EB8" stroke="#1B6EB8"/>
</svg>
