<svg width="41" height="44" viewBox="0 0 41 44" fill="none" xmlns="http://www.w3.org/2000/svg">
<path d="M39.3971 43.4694H1.32667C1.24003 43.4694 1.15694 43.435 1.09568 43.3738C1.03442 43.3125 1 43.2294 1 43.1428V26.6993C1 26.6127 1.03442 26.5296 1.09568 26.4684C1.15694 26.4071 1.24003 26.3727 1.32667 26.3727H39.3971C39.4837 26.3727 39.5668 26.4071 39.628 26.4684C39.6893 26.5296 39.7237 26.6127 39.7237 26.6993V43.1428C39.7237 43.2294 39.6893 43.3125 39.628 43.3738C39.5668 43.435 39.4837 43.4694 39.3971 43.4694ZM1.65333 42.8161H39.0704V27.026H1.65333V42.8161Z" fill="#1B6EB8" stroke="#1B6EB8"/>
<path d="M16.2133 27.0259H2.53377C2.48734 27.0259 2.44143 27.0161 2.39912 26.9969C2.35681 26.9778 2.31906 26.9499 2.2884 26.915C2.25773 26.8801 2.23485 26.8391 2.22128 26.7947C2.20772 26.7503 2.20377 26.7035 2.20972 26.6575L4.57185 8.40985C4.58201 8.3311 4.62051 8.25874 4.68015 8.20632C4.7398 8.15389 4.81649 8.12498 4.8959 8.125H13.8508C13.9303 8.1249 14.0071 8.15377 14.0668 8.20621C14.1265 8.25864 14.165 8.33104 14.1752 8.40985L16.537 26.6575C16.5429 26.7035 16.539 26.7503 16.5254 26.7947C16.5119 26.8391 16.489 26.8801 16.4583 26.915C16.4277 26.9499 16.3899 26.9778 16.3476 26.9969C16.3053 27.0161 16.2594 27.0259 16.2129 27.0259H16.2133ZM2.90585 26.3726H15.8418L13.5637 8.77735H5.18304L2.90585 26.3726Z" fill="#1B6EB8" stroke="#1B6EB8"/>
<path d="M13.8355 8.77741H4.91065C4.82401 8.77741 4.74092 8.743 4.67966 8.68174C4.6184 8.62047 4.58398 8.53738 4.58398 8.45075V4.60621C4.58398 4.51957 4.6184 4.43648 4.67966 4.37522C4.74092 4.31396 4.82401 4.27954 4.91065 4.27954H13.8355C13.9222 4.27954 14.0052 4.31396 14.0665 4.37522C14.1278 4.43648 14.1622 4.51957 14.1622 4.60621V8.45075C14.1622 8.53738 14.1278 8.62047 14.0665 8.68174C14.0052 8.743 13.9222 8.77741 13.8355 8.77741ZM5.23732 8.12408H13.5088V4.93287H5.23732V8.12408Z" fill="#1B6EB8" stroke="#1B6EB8"/>
<path d="M26.1638 27.026H19.689C19.6023 27.026 19.5192 26.9916 19.458 26.9303C19.3967 26.8691 19.3623 26.786 19.3623 26.6994V21.7461C19.3623 21.6595 19.3967 21.5764 19.458 21.5151C19.5192 21.4538 19.6023 21.4194 19.689 21.4194H26.1638C26.2505 21.4194 26.3335 21.4538 26.3948 21.5151C26.4561 21.5764 26.4905 21.6595 26.4905 21.7461V26.6994C26.4905 26.786 26.4561 26.8691 26.3948 26.9303C26.3335 26.9916 26.2505 27.026 26.1638 27.026ZM20.0156 26.3727H25.8372V22.0728H20.0156V26.3727Z" fill="#1B6EB8" stroke="#1B6EB8"/>
<path d="M35.9636 27.026H29.4888C29.4021 27.026 29.319 26.9916 29.2578 26.9303C29.1965 26.8691 29.1621 26.786 29.1621 26.6994V21.7461C29.1621 21.6595 29.1965 21.5764 29.2578 21.5151C29.319 21.4538 29.4021 21.4194 29.4888 21.4194H35.9636C36.0503 21.4194 36.1334 21.4538 36.1946 21.5151C36.2559 21.5764 36.2903 21.6595 36.2903 21.7461V26.6994C36.2903 26.786 36.2559 26.8691 36.1946 26.9303C36.1334 26.9916 36.0503 27.026 35.9636 27.026ZM29.8154 26.3727H35.637V22.0728H29.8154V26.3727Z" fill="#1B6EB8" stroke="#1B6EB8"/>
<path d="M39.3971 39.1901H1.32667C1.24003 39.1901 1.15694 39.1557 1.09568 39.0944C1.03442 39.0331 1 38.95 1 38.8634C1 38.7768 1.03442 38.6937 1.09568 38.6324C1.15694 38.5712 1.24003 38.5367 1.32667 38.5367H39.3971C39.4837 38.5367 39.5668 38.5712 39.628 38.6324C39.6893 38.6937 39.7237 38.7768 39.7237 38.8634C39.7237 38.95 39.6893 39.0331 39.628 39.0944C39.5668 39.1557 39.4837 39.1901 39.3971 39.1901Z" fill="#1B6EB8" stroke="#1B6EB8"/>
<path d="M35.5988 36.0351H29.854C29.7674 36.0351 29.6843 36.0006 29.623 35.9394C29.5618 35.8781 29.5273 35.795 29.5273 35.7084V29.9636C29.5273 29.877 29.5618 29.7939 29.623 29.7326C29.6843 29.6714 29.7674 29.637 29.854 29.637H35.5988C35.6854 29.637 35.7685 29.6714 35.8298 29.7326C35.891 29.7939 35.9254 29.877 35.9254 29.9636V35.7084C35.9254 35.795 35.891 35.8781 35.8298 35.9394C35.7685 36.0006 35.6854 36.0351 35.5988 36.0351ZM30.1807 35.3817H35.2721V30.2903H30.1807V35.3817Z" fill="#1B6EB8" stroke="#1B6EB8"/>
<path d="M23.234 36.0351H17.4893C17.4026 36.0351 17.3195 36.0006 17.2583 35.9394C17.197 35.8781 17.1626 35.795 17.1626 35.7084V29.9636C17.1626 29.877 17.197 29.7939 17.2583 29.7326C17.3195 29.6714 17.4026 29.637 17.4893 29.637H23.234C23.3207 29.637 23.4038 29.6714 23.465 29.7326C23.5263 29.7939 23.5607 29.877 23.5607 29.9636V35.7084C23.5607 35.795 23.5263 35.8781 23.465 35.9394C23.4038 36.0006 23.3207 36.0351 23.234 36.0351ZM17.8159 35.3817H22.9074V30.2903H17.8159V35.3817Z" fill="#1B6EB8" stroke="#1B6EB8"/>
<path d="M10.8693 36.0351H5.12452C5.03788 36.0351 4.95479 36.0006 4.89353 35.9394C4.83227 35.8781 4.79785 35.795 4.79785 35.7084V29.9636C4.79785 29.877 4.83227 29.7939 4.89353 29.7326C4.95479 29.6714 5.03788 29.637 5.12452 29.637H10.8693C10.9559 29.637 11.039 29.6714 11.1003 29.7326C11.1615 29.7939 11.1959 29.877 11.1959 29.9636V35.7084C11.1959 35.795 11.1615 35.8781 11.1003 35.9394C11.039 36.0006 10.9559 36.0351 10.8693 36.0351ZM5.45118 35.3817H10.5426V30.2903H5.45118V35.3817Z" fill="#1B6EB8" stroke="#1B6EB8"/>
<path d="M32.4926 2.99342C32.4219 2.99342 32.3531 2.97049 32.2966 2.92808C30.0772 1.25947 28.2459 1.53812 27.1006 2.06536C26.628 2.28835 26.1131 2.40752 25.5906 2.41485C25.0681 2.42217 24.5501 2.31748 24.0714 2.10782C23.4756 1.81911 22.8233 1.6656 22.1613 1.65826C21.4992 1.65092 20.8437 1.78993 20.2416 2.06536C19.769 2.28835 19.2541 2.40752 18.7316 2.41485C18.2091 2.42217 17.6911 2.31748 17.2124 2.10782C16.39 1.70551 15.464 1.56497 14.5592 1.70515C13.6545 1.84533 12.8145 2.2595 12.1523 2.89182C12.0921 2.95252 12.0105 2.98719 11.9251 2.98841C11.8396 2.98963 11.757 2.95729 11.6951 2.89833C11.6332 2.83938 11.5969 2.7585 11.5939 2.67307C11.591 2.58763 11.6216 2.50444 11.6793 2.44135C12.4404 1.72057 13.4013 1.24622 14.4363 1.08035C15.4714 0.914482 16.5324 1.0648 17.4806 1.51166C17.8741 1.68286 18.2997 1.76788 18.7289 1.76101C19.158 1.75413 19.5806 1.65552 19.9685 1.4718C20.655 1.15605 21.4028 0.995897 22.1583 1.00279C22.9139 1.00968 23.6587 1.18344 24.3393 1.51166C24.7329 1.68285 25.1586 1.76786 25.5877 1.76099C26.0169 1.75411 26.4396 1.65551 26.8275 1.4718C28.1342 0.869756 30.2124 0.543089 32.6889 2.40574C32.7437 2.44688 32.7843 2.50423 32.8047 2.56968C32.8251 2.63512 32.8245 2.70534 32.8028 2.77038C32.7811 2.83542 32.7395 2.89199 32.6839 2.93208C32.6283 2.97217 32.5614 2.99374 32.4929 2.99374L32.4926 2.99342Z" fill="#1B6EB8" stroke="#1B6EB8"/>
<path d="M38.3901 6.93888C38.3194 6.93888 38.2506 6.91595 38.1941 6.87354C35.9728 5.2046 34.1434 5.4839 32.9978 6.01081C32.5252 6.23376 32.0104 6.35291 31.488 6.36023C30.9655 6.36756 30.4476 6.26289 29.9689 6.05328C29.3731 5.76464 28.7208 5.61116 28.0588 5.60382C27.3967 5.59648 26.7412 5.73545 26.1391 6.01081C25.6665 6.23381 25.1516 6.35298 24.6291 6.36031C24.1066 6.36763 23.5886 6.26294 23.1099 6.05328C22.286 5.65797 21.3617 5.5213 20.4586 5.66123C19.5555 5.80117 18.7159 6.21116 18.0502 6.83728C18.0211 6.87 17.9857 6.89653 17.9461 6.91529C17.9065 6.93405 17.8636 6.94466 17.8198 6.94649C17.7761 6.94832 17.7324 6.94133 17.6914 6.92594C17.6504 6.91055 17.6129 6.88707 17.5811 6.8569C17.5494 6.82673 17.524 6.79049 17.5066 6.75032C17.4891 6.71015 17.4799 6.66689 17.4795 6.62309C17.4791 6.5793 17.4875 6.53587 17.5042 6.49539C17.521 6.45491 17.5456 6.41821 17.5768 6.38746C18.3377 5.66644 19.2984 5.19191 20.3334 5.02597C21.3684 4.86003 22.4294 5.01041 23.3775 5.45744C23.7711 5.62872 24.1968 5.71378 24.626 5.70691C25.0553 5.70003 25.4781 5.60138 25.866 5.41759C26.5525 5.10189 27.3002 4.94176 28.0557 4.94865C28.8112 4.95554 29.5559 5.12928 30.2365 5.45744C30.6301 5.62863 31.0557 5.71364 31.4849 5.70677C31.9141 5.6999 32.3368 5.60129 32.7247 5.41759C34.0314 4.81554 36.1093 4.48855 38.5864 6.35153C38.6413 6.39266 38.6818 6.45002 38.7022 6.51546C38.7227 6.5809 38.722 6.65112 38.7003 6.71616C38.6786 6.78121 38.637 6.83778 38.5814 6.87787C38.5258 6.91796 38.459 6.93953 38.3904 6.93953L38.3901 6.93888Z" fill="#1B6EB8" stroke="#1B6EB8"/>
<path d="M39.3971 43.4694H1.32667C1.24003 43.4694 1.15694 43.435 1.09568 43.3738C1.03442 43.3125 1 43.2294 1 43.1428V26.6993C1 26.6127 1.03442 26.5296 1.09568 26.4684C1.15694 26.4071 1.24003 26.3727 1.32667 26.3727H39.3971C39.4837 26.3727 39.5668 26.4071 39.628 26.4684C39.6893 26.5296 39.7237 26.6127 39.7237 26.6993V43.1428C39.7237 43.2294 39.6893 43.3125 39.628 43.3738C39.5668 43.435 39.4837 43.4694 39.3971 43.4694ZM1.65333 42.8161H39.0704V27.026H1.65333V42.8161Z" fill="#1B6EB8" stroke="#1B6EB8"/>
<path d="M16.2133 27.0259H2.53377C2.48734 27.0259 2.44143 27.0161 2.39912 26.9969C2.35681 26.9778 2.31906 26.9499 2.2884 26.915C2.25773 26.8801 2.23485 26.8391 2.22128 26.7947C2.20772 26.7503 2.20377 26.7035 2.20972 26.6575L4.57185 8.40985C4.58201 8.3311 4.62051 8.25874 4.68015 8.20632C4.7398 8.15389 4.81649 8.12498 4.8959 8.125H13.8508C13.9303 8.1249 14.0071 8.15377 14.0668 8.20621C14.1265 8.25864 14.165 8.33104 14.1752 8.40985L16.537 26.6575C16.5429 26.7035 16.539 26.7503 16.5254 26.7947C16.5119 26.8391 16.489 26.8801 16.4583 26.915C16.4277 26.9499 16.3899 26.9778 16.3476 26.9969C16.3053 27.0161 16.2594 27.0259 16.2129 27.0259H16.2133ZM2.90585 26.3726H15.8418L13.5637 8.77735H5.18304L2.90585 26.3726Z" fill="#1B6EB8" stroke="#1B6EB8"/>
<path d="M13.8355 8.77741H4.91065C4.82401 8.77741 4.74092 8.743 4.67966 8.68174C4.6184 8.62047 4.58398 8.53738 4.58398 8.45075V4.60621C4.58398 4.51957 4.6184 4.43648 4.67966 4.37522C4.74092 4.31396 4.82401 4.27954 4.91065 4.27954H13.8355C13.9222 4.27954 14.0052 4.31396 14.0665 4.37522C14.1278 4.43648 14.1622 4.51957 14.1622 4.60621V8.45075C14.1622 8.53738 14.1278 8.62047 14.0665 8.68174C14.0052 8.743 13.9222 8.77741 13.8355 8.77741ZM5.23732 8.12408H13.5088V4.93287H5.23732V8.12408Z" fill="#1B6EB8" stroke="#1B6EB8"/>
<path d="M26.1638 27.026H19.689C19.6023 27.026 19.5192 26.9916 19.458 26.9303C19.3967 26.8691 19.3623 26.786 19.3623 26.6994V21.7461C19.3623 21.6595 19.3967 21.5764 19.458 21.5151C19.5192 21.4538 19.6023 21.4194 19.689 21.4194H26.1638C26.2505 21.4194 26.3335 21.4538 26.3948 21.5151C26.4561 21.5764 26.4905 21.6595 26.4905 21.7461V26.6994C26.4905 26.786 26.4561 26.8691 26.3948 26.9303C26.3335 26.9916 26.2505 27.026 26.1638 27.026ZM20.0156 26.3727H25.8372V22.0728H20.0156V26.3727Z" fill="#1B6EB8" stroke="#1B6EB8"/>
<path d="M35.9636 27.026H29.4888C29.4021 27.026 29.319 26.9916 29.2578 26.9303C29.1965 26.8691 29.1621 26.786 29.1621 26.6994V21.7461C29.1621 21.6595 29.1965 21.5764 29.2578 21.5151C29.319 21.4538 29.4021 21.4194 29.4888 21.4194H35.9636C36.0503 21.4194 36.1334 21.4538 36.1946 21.5151C36.2559 21.5764 36.2903 21.6595 36.2903 21.7461V26.6994C36.2903 26.786 36.2559 26.8691 36.1946 26.9303C36.1334 26.9916 36.0503 27.026 35.9636 27.026ZM29.8154 26.3727H35.637V22.0728H29.8154V26.3727Z" fill="#1B6EB8" stroke="#1B6EB8"/>
<path d="M39.3971 39.1901H1.32667C1.24003 39.1901 1.15694 39.1557 1.09568 39.0944C1.03442 39.0331 1 38.95 1 38.8634C1 38.7768 1.03442 38.6937 1.09568 38.6324C1.15694 38.5712 1.24003 38.5367 1.32667 38.5367H39.3971C39.4837 38.5367 39.5668 38.5712 39.628 38.6324C39.6893 38.6937 39.7237 38.7768 39.7237 38.8634C39.7237 38.95 39.6893 39.0331 39.628 39.0944C39.5668 39.1557 39.4837 39.1901 39.3971 39.1901Z" fill="#1B6EB8" stroke="#1B6EB8"/>
<path d="M35.5988 36.0351H29.854C29.7674 36.0351 29.6843 36.0006 29.623 35.9394C29.5618 35.8781 29.5273 35.795 29.5273 35.7084V29.9636C29.5273 29.877 29.5618 29.7939 29.623 29.7326C29.6843 29.6714 29.7674 29.637 29.854 29.637H35.5988C35.6854 29.637 35.7685 29.6714 35.8298 29.7326C35.891 29.7939 35.9254 29.877 35.9254 29.9636V35.7084C35.9254 35.795 35.891 35.8781 35.8298 35.9394C35.7685 36.0006 35.6854 36.0351 35.5988 36.0351ZM30.1807 35.3817H35.2721V30.2903H30.1807V35.3817Z" fill="#1B6EB8" stroke="#1B6EB8"/>
<path d="M23.234 36.0351H17.4893C17.4026 36.0351 17.3195 36.0006 17.2583 35.9394C17.197 35.8781 17.1626 35.795 17.1626 35.7084V29.9636C17.1626 29.877 17.197 29.7939 17.2583 29.7326C17.3195 29.6714 17.4026 29.637 17.4893 29.637H23.234C23.3207 29.637 23.4038 29.6714 23.465 29.7326C23.5263 29.7939 23.5607 29.877 23.5607 29.9636V35.7084C23.5607 35.795 23.5263 35.8781 23.465 35.9394C23.4038 36.0006 23.3207 36.0351 23.234 36.0351ZM17.8159 35.3817H22.9074V30.2903H17.8159V35.3817Z" fill="#1B6EB8" stroke="#1B6EB8"/>
<path d="M10.8693 36.0351H5.12452C5.03788 36.0351 4.95479 36.0006 4.89353 35.9394C4.83227 35.8781 4.79785 35.795 4.79785 35.7084V29.9636C4.79785 29.877 4.83227 29.7939 4.89353 29.7326C4.95479 29.6714 5.03788 29.637 5.12452 29.637H10.8693C10.9559 29.637 11.039 29.6714 11.1003 29.7326C11.1615 29.7939 11.1959 29.877 11.1959 29.9636V35.7084C11.1959 35.795 11.1615 35.8781 11.1003 35.9394C11.039 36.0006 10.9559 36.0351 10.8693 36.0351ZM5.45118 35.3817H10.5426V30.2903H5.45118V35.3817Z" fill="#1B6EB8" stroke="#1B6EB8"/>
<path d="M32.4926 2.99342C32.4219 2.99342 32.3531 2.97049 32.2966 2.92808C30.0772 1.25947 28.2459 1.53812 27.1006 2.06536C26.628 2.28835 26.1131 2.40752 25.5906 2.41485C25.0681 2.42217 24.5501 2.31748 24.0714 2.10782C23.4756 1.81911 22.8233 1.6656 22.1613 1.65826C21.4992 1.65092 20.8437 1.78993 20.2416 2.06536C19.769 2.28835 19.2541 2.40752 18.7316 2.41485C18.2091 2.42217 17.6911 2.31748 17.2124 2.10782C16.39 1.70551 15.464 1.56497 14.5592 1.70515C13.6545 1.84533 12.8145 2.2595 12.1523 2.89182C12.0921 2.95252 12.0105 2.98719 11.9251 2.98841C11.8396 2.98963 11.757 2.95729 11.6951 2.89833C11.6332 2.83938 11.5969 2.7585 11.5939 2.67307C11.591 2.58763 11.6216 2.50444 11.6793 2.44135C12.4404 1.72057 13.4013 1.24622 14.4363 1.08035C15.4714 0.914482 16.5324 1.0648 17.4806 1.51166C17.8741 1.68286 18.2997 1.76788 18.7289 1.76101C19.158 1.75413 19.5806 1.65552 19.9685 1.4718C20.655 1.15605 21.4028 0.995897 22.1583 1.00279C22.9139 1.00968 23.6587 1.18344 24.3393 1.51166C24.7329 1.68285 25.1586 1.76786 25.5877 1.76099C26.0169 1.75411 26.4396 1.65551 26.8275 1.4718C28.1342 0.869756 30.2124 0.543089 32.6889 2.40574C32.7437 2.44688 32.7843 2.50423 32.8047 2.56968C32.8251 2.63512 32.8245 2.70534 32.8028 2.77038C32.7811 2.83542 32.7395 2.89199 32.6839 2.93208C32.6283 2.97217 32.5614 2.99374 32.4929 2.99374L32.4926 2.99342Z" fill="#1B6EB8" stroke="#1B6EB8"/>
<path d="M38.3901 6.93888C38.3194 6.93888 38.2506 6.91595 38.1941 6.87354C35.9728 5.2046 34.1434 5.4839 32.9978 6.01081C32.5252 6.23376 32.0104 6.35291 31.488 6.36023C30.9655 6.36756 30.4476 6.26289 29.9689 6.05328C29.3731 5.76464 28.7208 5.61116 28.0588 5.60382C27.3967 5.59648 26.7412 5.73545 26.1391 6.01081C25.6665 6.23381 25.1516 6.35298 24.6291 6.36031C24.1066 6.36763 23.5886 6.26294 23.1099 6.05328C22.286 5.65797 21.3617 5.5213 20.4586 5.66123C19.5555 5.80117 18.7159 6.21116 18.0502 6.83728C18.0211 6.87 17.9857 6.89653 17.9461 6.91529C17.9065 6.93405 17.8636 6.94466 17.8198 6.94649C17.7761 6.94832 17.7324 6.94133 17.6914 6.92594C17.6504 6.91055 17.6129 6.88707 17.5811 6.8569C17.5494 6.82673 17.524 6.79049 17.5066 6.75032C17.4891 6.71015 17.4799 6.66689 17.4795 6.62309C17.4791 6.5793 17.4875 6.53587 17.5042 6.49539C17.521 6.45491 17.5456 6.41821 17.5768 6.38746C18.3377 5.66644 19.2984 5.19191 20.3334 5.02597C21.3684 4.86003 22.4294 5.01041 23.3775 5.45744C23.7711 5.62872 24.1968 5.71378 24.626 5.70691C25.0553 5.70003 25.4781 5.60138 25.866 5.41759C26.5525 5.10189 27.3002 4.94176 28.0557 4.94865C28.8112 4.95554 29.5559 5.12928 30.2365 5.45744C30.6301 5.62863 31.0557 5.71364 31.4849 5.70677C31.9141 5.6999 32.3368 5.60129 32.7247 5.41759C34.0314 4.81554 36.1093 4.48855 38.5864 6.35153C38.6413 6.39266 38.6818 6.45002 38.7022 6.51546C38.7227 6.5809 38.722 6.65112 38.7003 6.71616C38.6786 6.78121 38.637 6.83778 38.5814 6.87787C38.5258 6.91796 38.459 6.93953 38.3904 6.93953L38.3901 6.93888Z" fill="#1B6EB8" stroke="#1B6EB8"/>
</svg>
