<svg width="16" height="14" viewBox="0 0 16 14" fill="none" xmlns="http://www.w3.org/2000/svg">
<path d="M14.9593 10.3422L14.0602 9.93822C14.0602 9.93822 12.7523 9.37263 11.9348 8.96861C11.853 8.96861 11.7714 8.88776 11.6896 8.88776C11.4443 8.88776 11.2808 8.96861 11.1173 9.04946C11.1173 9.04946 11.0357 9.13019 9.89121 10.423C9.80941 10.5846 9.64594 10.6654 9.48246 10.6654H9.40066C9.31898 10.6654 9.15551 10.5846 9.07371 10.5038L8.66496 10.3422C7.76578 9.93822 6.9484 9.45336 6.29438 8.80703C6.1309 8.64544 5.88563 8.48386 5.72215 8.32228C5.14992 7.75668 4.5777 7.11023 4.16906 6.38305L4.08727 6.22147C4.00559 6.14062 4.00559 6.05988 3.92379 5.8983C3.92379 5.73672 3.92379 5.57514 4.00559 5.49429C4.00559 5.49429 4.33254 5.09027 4.5777 4.84795C4.74129 4.68625 4.82297 4.44394 4.98645 4.28236C5.14992 4.03992 5.23172 3.71676 5.14992 3.47432C5.06824 3.07031 4.08727 0.888765 3.84211 0.404016C3.67852 0.161583 3.51516 0.0808494 3.26988 0H2.3707C2.20711 0 2.04375 0.0808492 1.88016 0.0808492L1.79836 0.161582C1.63488 0.242432 1.47141 0.404015 1.30793 0.484749C1.14445 0.646448 1.06266 0.807915 0.89918 0.969614C0.326954 1.6968 0 2.58556 0 3.47432C0 4.12066 0.163477 4.7671 0.40875 5.3327L0.490548 5.57513C1.22625 7.11023 2.20711 8.48386 3.51516 9.69579L3.84211 10.019C4.08727 10.2614 4.33254 10.423 4.49602 10.6653C6.2127 12.1198 8.17453 13.1701 10.3816 13.7357C10.6269 13.8164 10.9539 13.8164 11.1991 13.8973H12.0165C12.4253 13.8973 12.9157 13.7357 13.2428 13.5741C13.4879 13.4125 13.6514 13.4125 13.8149 13.251L13.9785 13.0893C14.142 12.9277 14.3054 12.8469 14.4689 12.6854C14.6324 12.5238 14.7959 12.3622 14.8777 12.2005C15.0409 11.8778 15.1226 11.4745 15.2043 11.0711L15.2046 11.0694V10.5038C15.2046 10.5038 15.1228 10.423 14.9593 10.3422Z" fill="white"/>
</svg>
